<?xml version="1.0" encoding="UTF-8" standalone="no"?>
<svg
   xmlns:dc="http://purl.org/dc/elements/1.1/"
   xmlns:cc="http://creativecommons.org/ns#"
   xmlns:rdf="http://www.w3.org/1999/02/22-rdf-syntax-ns#"
   xmlns:svg="http://www.w3.org/2000/svg"
   xmlns="http://www.w3.org/2000/svg"
   xmlns:sodipodi="http://sodipodi.sourceforge.net/DTD/sodipodi-0.dtd"
   xmlns:inkscape="http://www.inkscape.org/namespaces/inkscape"
   width="297mm"
   height="210mm"
   viewBox="0 0 297 210"
   version="1.1"
   id="svg3334"
   inkscape:version="1.0.1 (3bc2e813f5, 2020-09-07)"
   sodipodi:docname="staff.svg">
  <defs
     id="defs3328" />
  <sodipodi:namedview
     id="base"
     pagecolor="#ffffff"
     bordercolor="#666666"
     borderopacity="1.0"
     inkscape:pageopacity="0.0"
     inkscape:pageshadow="2"
     inkscape:zoom="0.35"
     inkscape:cx="400"
     inkscape:cy="560"
     inkscape:document-units="mm"
     inkscape:current-layer="layer1"
     inkscape:document-rotation="0"
     showgrid="false"
     inkscape:window-width="1431"
     inkscape:window-height="977"
     inkscape:window-x="307"
     inkscape:window-y="176"
     inkscape:window-maximized="0" />
  <metadata
     id="metadata3331">
    <rdf:RDF>
      <cc:Work
         rdf:about="">
        <dc:format>image/svg+xml</dc:format>
        <dc:type
           rdf:resource="http://purl.org/dc/dcmitype/StillImage" />
        <dc:title></dc:title>
      </cc:Work>
    </rdf:RDF>
  </metadata>
  <g
     inkscape:label="Layer 1"
     inkscape:groupmode="layer"
     id="layer1">
    <g
       id="treble_clef"
       inkscape:label="#treble_clef"
       transform="translate(19.6179,18.422443)">
      <path
         class="fil0 str0"
         d="m 16.862744,33.122889 c -0.690394,0.191933 -1.312879,0.620975 -1.890091,1.275832 -0.577213,0.666134 -0.860172,1.400033 -0.860172,2.190353 0,0.496789 0.169762,1.061326 0.497994,1.659713 0.328215,0.609681 0.82621,1.050017 1.471331,1.332285 0.215035,0.04514 0.316905,0.158084 0.316905,0.316135 0,0.05655 -0.07923,0.112939 -0.271633,0.158083 -1.029935,-0.259681 -1.878845,-0.812924 -2.535276,-1.637061 -0.656447,-0.835496 -0.995989,-1.783899 -1.018609,-2.86783 0.03395,-1.162924 0.384814,-2.246742 1.052571,-3.240385 0.679083,-1.004857 1.550565,-1.716104 2.614479,-2.133964 L 15.459305,26.1679 c -1.742932,1.445193 -3.157649,2.946872 -4.255556,4.527544 -1.097844,1.569378 -1.6637304,3.274283 -1.7090347,5.114571 0.022636,0.824202 0.1923989,1.625816 0.5093047,2.39358 0.316905,0.779042 0.792264,1.479043 1.426058,2.122557 1.278933,1.275816 2.942695,1.941982 4.968538,2.009778 0.690393,-0.04514 1.426059,-0.169361 2.218307,-0.372604 z m 0.8149,-0.112939 1.765584,8.682369 c 1.742932,-0.700016 2.614479,-2.22425 2.614479,-4.550034 -0.101855,-0.779042 -0.328216,-1.479059 -0.71303,-2.100066 -0.373488,-0.632253 -0.871482,-1.129042 -1.505293,-1.490336 -0.633811,-0.36131 -1.34684,-0.541949 -2.161756,-0.541949 z M 15.357483,21.267769 c 0.373487,-0.225799 0.803573,-0.620975 1.267606,-1.174202 0.464032,-0.541949 0.916754,-1.185512 1.34684,-1.908084 0.441396,-0.733898 0.792264,-1.479058 1.052571,-2.235496 0.260307,-0.745177 0.384814,-1.456471 0.384814,-2.111312 0,-0.282252 -0.02265,-0.564521 -0.07923,-0.812907 -0.04527,-0.406454 -0.169763,-0.722605 -0.384814,-0.937126 -0.215035,-0.203227 -0.486669,-0.316134 -0.82621,-0.316134 -0.679083,0 -1.290242,0.417764 -1.833541,1.25326 -0.41876,0.722588 -0.769628,1.580655 -1.018625,2.551663 -0.260307,0.982269 -0.40745,1.953227 -0.430086,2.935464 0.05658,1.117765 0.237671,2.03227 0.52063,2.75489 z m -0.71303,0.654857 c -0.509304,-1.829043 -0.792264,-3.691983 -0.848846,-5.588822 0.01125,-1.219377 0.135817,-2.359682 0.373488,-3.42096 0.226361,-1.061327 0.554577,-1.97588 0.984663,-2.766136 0.41876,-0.7903357 0.905444,-1.3887387 1.448695,-1.7951444 0.486668,-0.3612942 0.83752,-0.5532432 1.029934,-0.5532432 0.147127,0 0.271634,0.05655 0.384814,0.1580832 0.113181,0.1016938 0.260308,0.2709586 0.441396,0.4967735 1.346841,1.9080839 2.025844,4.2113769 2.025844,6.8984709 0,1.275815 -0.169779,2.517765 -0.509305,3.759779 -0.328215,1.230656 -0.8149,2.404825 -1.460021,3.500002 -0.656447,1.10647 -1.426058,2.066167 -2.320161,2.890321 l 0.916755,4.448501 c 0.497994,-0.05639 0.83752,-0.101693 1.029935,-0.101693 0.860172,0 1.629832,0.180639 2.342813,0.541933 0.713029,0.361294 1.324204,0.846789 1.822134,1.467764 0.497995,0.609697 0.882809,1.309714 1.154426,2.100066 0.260307,0.79032 0.40745,1.61457 0.40745,2.472621 0,1.332285 -0.350852,2.551663 -1.052571,3.64684 -0.70172,1.09516 -1.754339,1.896838 -3.169055,2.416231 0.09054,0.553228 0.248997,1.354874 0.486668,2.382334 0.226361,1.038739 0.396124,1.862941 0.509304,2.472622 0.113181,0.609681 0.158453,1.19679 0.158453,1.772653 0,0.891949 -0.215035,1.682366 -0.645121,2.382334 -0.441396,0.700017 -1.029935,1.24195 -1.776991,1.625816 -0.735665,0.383882 -1.550565,0.575799 -2.433422,0.575799 -1.24497,0 -2.331567,-0.350001 -3.259503,-1.038707 -0.928081,-0.700032 -1.426059,-1.637061 -1.471331,-2.833932 0.03395,-0.530655 0.158453,-1.027444 0.384814,-1.501646 0.226361,-0.474202 0.53194,-0.858068 0.928064,-1.15163 0.384814,-0.304841 0.848846,-0.462908 1.380787,-0.496774 0.441396,0 0.860172,0.124186 1.256296,0.361295 0.384814,0.248386 0.701719,0.575815 0.93939,0.993563 0.226361,0.417747 0.350852,0.880671 0.350852,1.377445 0,0.666134 -0.226361,1.230671 -0.679083,1.693611 -0.452723,0.462908 -1.029935,0.7 -1.72028,0.7 h -0.260324 c 0.441396,0.677445 1.165752,1.027445 2.173003,1.027445 0.509304,0 1.029934,-0.112939 1.550565,-0.316134 0.531941,-0.214521 0.973337,-0.49679 1.34684,-0.858068 0.373488,-0.361294 0.622485,-0.745192 0.724356,-1.151646 0.192399,-0.462908 0.282943,-1.10647 0.282943,-1.908084 0,-0.541933 -0.05658,-1.083883 -0.158452,-1.625816 -0.101855,-0.530655 -0.260308,-1.241949 -0.475359,-2.122557 -0.215051,-0.869377 -0.373488,-1.54679 -0.464032,-2.009778 -0.679083,0.169361 -1.380787,0.259681 -2.116452,0.259681 -1.23366,0 -2.399363,-0.248387 -3.497271,-0.756454 -1.097843,-0.508084 -2.059902,-1.2081 -2.89739,-2.111311 C 9.4379553,39.33283 8.7928342,38.316744 8.3287699,37.165017 7.8760477,36.024665 7.6383766,34.827827 7.6270505,33.585974 c 0.045272,-1.151647 0.2603072,-2.258149 0.6677572,-3.296775 0.40745,-1.050017 0.9280805,-2.043516 1.5732015,-2.969363 0.6451208,-0.925831 1.3128788,-1.772653 2.0033518,-2.529011 0.70172,-0.745176 1.618426,-1.704857 2.772883,-2.86783 z"
         fill="#131516"
         fill-rule="evenodd"
         image-rendering="optimizeQuality"
         shape-rendering="geometricPrecision"
         stroke="#131516"
         stroke-width=".15218"
         id="path875"
         style="stroke-width:0.195527;stroke-miterlimit:4;stroke-dasharray:none" />
      <g
         fill="none"
         stroke="#000000"
         stroke-width="0.18487"
         id="g887"
         transform="matrix(1.6065372,0,0,1.6065372,-0.72883865,-150.63284)"
         style="stroke-width:0.39526;stroke-miterlimit:4;stroke-dasharray:none">
        <path
           d="m 3.8455,120.93 h 283.51"
           id="path877"
           style="stroke-width:0.39526;stroke-miterlimit:4;stroke-dasharray:none" />
        <path
           d="m 3.8455,103.93 h 283.51"
           id="path879"
           style="stroke-width:0.39526;stroke-miterlimit:4;stroke-dasharray:none" />
        <path
           d="m 3.8455,108.18 h 283.51"
           id="path881"
           style="stroke-width:0.39526;stroke-miterlimit:4;stroke-dasharray:none" />
        <path
           d="m 3.8455,112.43 h 283.51"
           id="path883"
           style="stroke-width:0.39526;stroke-miterlimit:4;stroke-dasharray:none" />
        <path
           d="m 3.8455,116.68 h 283.51"
           id="path885"
           style="stroke-width:0.39526;stroke-miterlimit:4;stroke-dasharray:none" />
      </g>
    </g>
  </g>
</svg>
